
<svg xmlns="http://www.w3.org/2000/svg" width="32" height="32" viewBox="0 0 32 32">
  <rect width="32" height="32" rx="4" fill="white"/>
  <path d="M8 8C8 7.44772 8.44772 7 9 7H15C18.866 7 22 10.134 22 14C22 17.866 18.866 21 15 21H9C8.44772 21 8 20.5523 8 20V8Z" fill="#B28E47"/>
  <path d="M15 9H10V19H15C17.7614 19 20 16.7614 20 14C20 11.2386 17.7614 9 15 9Z" fill="white"/>
  <path d="M24 11C24.5523 11 25 11.4477 25 12V19C25 19.5523 24.5523 20 24 20C23.4477 20 23 19.5523 23 19V12C23 11.4477 23.4477 11 24 11Z" fill="#B28E47"/>
  <path d="M21 14C21 13.4477 21.4477 13 22 13H26C26.5523 13 27 13.4477 27 14C27 14.5523 26.5523 15 26 15H22C21.4477 15 21 14.5523 21 14Z" fill="#B28E47"/>
</svg>
